# xmcd
#
# Track frame offsets:
#	150
#	17053
#	32261
#	51658
#	65296
#	81439
#	103371
#	114346
#	130595
#	148271
#	161645
#	179105
#	193382
#
# Disc length: 2796 seconds
#
# Revision: 1
# Processed by: cddbd v1.5.2PL0 Copyright (c) Steve Scherf et al.
# Submitted via: audiograbber 1.83.01
#
DISCID=c20aea0d
DTITLE=Sonlight - Life Begins
DYEAR=2009
DGENRE=Gospel
TTITLE0=Down On Your Knees
TTITLE1=It's Still The Cross
TTITLE2=Grace
TTITLE3=Life Begins
TTITLE4=Shining Like Gold
TTITLE5=Go Ask
TTITLE6=My Path Will Not Be Darkened By The Shade
TTITLE7=Saved By The Hands
TTITLE8=How Deep The Father's Love For Us
TTITLE9=Step Into The Water
TTITLE10=The Lighthouse
TTITLE11=Stand Still
TTITLE12=I Pledge Allegiance To The Lamb
EXTD=
EXTT0=
EXTT1=
EXTT2=
EXTT3=
EXTT4=
EXTT5=
EXTT6=
EXTT7=
EXTT8=
EXTT9=
EXTT10=
EXTT11=
EXTT12=
PLAYORDER=
